<svg width="51" height="56" viewBox="0 0 51 56" fill="none" xmlns="http://www.w3.org/2000/svg">
<path d="M37.5 20.5L29.9045 19.7786V15.5V11.4214L25 8.35714L38 0L51 8.35714V19.5H48.6364V9.88929L46.2727 11.4214V19.7786L37.5 20.5ZM38 13.5107L46.0955 8.35714L38 3.20357L29.9045 8.35714L38 13.5107ZM37.5 18.5L43.9091 18.142V12.8839L38 16.7143L32.0909 12.8839V18.142L37.5 18.5Z" fill="#201205"/>
<g clip-path="url(#clip0_1259_66)">
<path d="M27.2224 28.3333H28.6771C30.5571 31.5915 34.079 33.7778 38.1113 33.7778C39.0471 33.7778 39.9658 33.6587 40.8335 33.4375V33.7778V36.5V52.8333C40.8335 54.3391 39.617 55.5556 38.1113 55.5556C36.6056 55.5556 35.3891 54.3391 35.3891 52.8333V40.8556L23.8196 50.1111H28.5835C30.0892 50.1111 31.3057 51.3276 31.3057 52.8333C31.3057 54.3391 30.0892 55.5556 28.5835 55.5556H16.3335C11.8248 55.5556 8.16685 51.8976 8.16685 47.3889V28.3759C8.16685 27.0062 7.14602 25.8408 5.78491 25.6707L5.11286 25.5856C3.62414 25.3984 2.56078 24.0373 2.74793 22.5486C2.93508 21.0599 4.29619 19.9965 5.78491 20.1837L6.45696 20.2687C10.5403 20.7792 13.6113 24.25 13.6113 28.3759V35.6323C16.5377 31.2342 21.5398 28.3333 27.2224 28.3333ZM40.8335 30.5877C39.9828 30.8854 39.0641 31.0556 38.1113 31.0556C35.6953 31.0556 33.5175 30.0007 32.0203 28.3333C31.7056 27.9845 31.4248 27.6102 31.1781 27.2104C30.3955 25.9514 29.9446 24.4712 29.9446 22.8889V14.7222V13.0208V12.9102C29.9446 12.4083 30.3445 12.0085 30.8464 12H30.8634C31.1441 12 31.4078 12.1361 31.578 12.3573C31.578 12.3573 31.578 12.3573 31.578 12.3658L32.6669 13.812L34.9807 16.9L35.3891 17.4444H40.8335L41.2419 16.9L43.5557 13.812L44.6446 12.3658C44.6446 12.3658 44.6446 12.3658 44.6446 12.3573C44.8148 12.1361 45.0785 12 45.3592 12H45.3762C45.8781 12.0085 46.278 12.4083 46.278 12.9102V13.0208V14.7222V22.8889C46.278 24.3606 45.8866 25.7472 45.2061 26.9382C44.2448 28.6226 42.688 29.9326 40.8335 30.5877ZM36.7502 22.8889C36.7502 22.5279 36.6068 22.1817 36.3515 21.9264C36.0963 21.6712 35.7501 21.5278 35.3891 21.5278C35.0281 21.5278 34.6819 21.6712 34.4266 21.9264C34.1714 22.1817 34.028 22.5279 34.028 22.8889C34.028 23.2499 34.1714 23.5961 34.4266 23.8513C34.6819 24.1066 35.0281 24.25 35.3891 24.25C35.7501 24.25 36.0963 24.1066 36.3515 23.8513C36.6068 23.5961 36.7502 23.2499 36.7502 22.8889ZM40.8335 24.25C41.1945 24.25 41.5407 24.1066 41.796 23.8513C42.0512 23.5961 42.1946 23.2499 42.1946 22.8889C42.1946 22.5279 42.0512 22.1817 41.796 21.9264C41.5407 21.6712 41.1945 21.5278 40.8335 21.5278C40.4725 21.5278 40.1263 21.6712 39.8711 21.9264C39.6158 22.1817 39.4724 22.5279 39.4724 22.8889C39.4724 23.2499 39.6158 23.5961 39.8711 23.8513C40.1263 24.1066 40.4725 24.25 40.8335 24.25Z" fill="#201209"/>
</g>
<defs>
<clipPath id="clip0_1259_66">
<rect width="49" height="43.5556" fill="white" transform="translate(0 12)"/>
</clipPath>
</defs>
</svg>
